{
  "accessors": [
    {
      "bufferView": 2,
      "componentType": 5126,
      "count": 16520,
      "max": [
        0.98365753889083862,
        0.98765134811401367,
        0.98371040821075439
      ],
      "min": [
        -0.98365753889083862,
        -0.9876512885093689,
        -0.98371040821075439
      ],
      "type": "VEC3"
    },
    {
      "bufferView": 2,
      "byteOffset": 198240,
      "componentType": 5126,
      "count": 16520,
      "max": [
        1,
        1,
        1
      ],
      "min": [
        -1,
        -1,
        -1
      ],
      "type": "VEC3"
    },
    {
      "bufferView": 3,
      "componentType": 5126,
      "count": 16520,
      "max": [
        0.91414505243301392,
        0.99997705221176147,
        0.9140312671661377,
        1
      ],
      "min": [
        -0.91414260864257812,
        -0.01819312758743763,
        -0.91403239965438843,
        1
      ],
      "type": "VEC4"
    },
    {
      "bufferView": 1,
      "componentType": 5126,
      "count": 16520,
      "max": [
        0.99164128303527832,
        0.98884707689285278
      ],
      "min": [
        0.017032712697982788,
        0.013603543862700462
      ],
      "type": "VEC2"
    },
    {
      "bufferView": 0,
      "componentType": 5125,
      "count": 94848,
      "max": [
        16519
      ],
      "min": [
        0
      ],
      "type": "SCALAR"
    },
    {
      "bufferView": 2,
      "byteOffset": 396480,
      "componentType": 5126,
      "count": 4,
      "max": [
        1,
        1,
        0
      ],
      "min": [
        -1,
        -1,
        0
      ],
      "type": "VEC3"
    },
    {
      "bufferView": 2,
      "byteOffset": 396528,
      "componentType": 5126,
      "count": 4,
      "max": [
        0,
        0,
        1
      ],
      "min": [
        0,
        0,
        1
      ],
      "type": "VEC3"
    },
    {
      "bufferView": 3,
      "byteOffset": 264320,
      "componentType": 5126,
      "count": 4,
      "max": [
        1,
        0,
        0,
        1
      ],
      "min": [
        1,
        0,
        0,
        1
      ],
      "type": "VEC4"
    },
    {
      "bufferView": 1,
      "byteOffset": 132160,
      "componentType": 5126,
      "count": 4,
      "max": [
        0.99990004301071167,
        0.99990004301071167
      ],
      "min": [
        9.9980010418221354e-05,
        9.9980010418221354e-05
      ],
      "type": "VEC2"
    },
    {
      "bufferView": 0,
      "byteOffset": 379392,
      "componentType": 5125,
      "count": 6,
      "max": [
        3
      ],
      "min": [
        0
      ],
      "type": "SCALAR"
    },
    {
      "bufferView": 4,
      "componentType": 5126,
      "count": 63,
      "max": [
        2.0666666030883789
      ],
      "min": [
        0
      ],
      "type": "SCALAR"
    },
    {
      "bufferView": 5,
      "componentType": 5126,
      "count": 63,
      "max": [
        0,
        8,
        0
      ],
      "min": [
        0,
        1.0960996150970459,
        0
      ],
      "type": "VEC3"
    },
    {
      "bufferView": 4,
      "byteOffset": 252,
      "componentType": 5126,
      "count": 2,
      "max": [
        2.0666666030883789
      ],
      "min": [
        0
      ],
      "type": "SCALAR"
    },
    {
      "bufferView": 5,
      "byteOffset": 756,
      "componentType": 5126,
      "count": 2,
      "max": [
        1.0000001192092896,
        1,
        1
      ],
      "min": [
        1.0000001192092896,
        1,
        1
      ],
      "type": "VEC3"
    },
    {
      "bufferView": 4,
      "byteOffset": 260,
      "componentType": 5126,
      "count": 63,
      "max": [
        2.0666666030883789
      ],
      "min": [
        0
      ],
      "type": "SCALAR"
    },
    {
      "bufferView": 6,
      "componentType": 5126,
      "count": 63,
      "max": [
        0.91155767440795898,
        0.4111371636390686,
        0.91147953271865845,
        0.279104083776474
      ],
      "min": [
        -0.61876606941223145,
        -0.28691214323043823,
        -0.63607615232467651,
        -0.41117227077484131
      ],
      "type": "VEC4"
    },
    {
      "bufferView": 4,
      "byteOffset": 512,
      "componentType": 5126,
      "count": 2,
      "max": [
        2.0666666030883789
      ],
      "min": [
        0
      ],
      "type": "SCALAR"
    },
    {
      "bufferView": 5,
      "byteOffset": 780,
      "componentType": 5126,
      "count": 2,
      "max": [
        0,
        0,
        0
      ],
      "min": [
        0,
        0,
        0
      ],
      "type": "VEC3"
    },
    {
      "bufferView": 4,
      "byteOffset": 520,
      "componentType": 5126,
      "count": 63,
      "max": [
        2.0666666030883789
      ],
      "min": [
        0
      ],
      "type": "SCALAR"
    },
    {
      "bufferView": 5,
      "byteOffset": 804,
      "componentType": 5126,
      "count": 63,
      "max": [
        2.4233276844024658,
        2.4233276844024658,
        2.4233276844024658
      ],
      "min": [
        0.5,
        0.5,
        0.5
      ],
      "type": "VEC3"
    },
    {
      "bufferView": 4,
      "byteOffset": 772,
      "componentType": 5126,
      "count": 2,
      "max": [
        2.0666666030883789
      ],
      "min": [
        0
      ],
      "type": "SCALAR"
    },
    {
      "bufferView": 6,
      "byteOffset": 1008,
      "componentType": 5126,
      "count": 2,
      "max": [
        -0.7071068286895752,
        0,
        0,
        0.70710670948028564
      ],
      "min": [
        -0.7071068286895752,
        0,
        0,
        0.70710670948028564
      ],
      "type": "VEC4"
    },
    {
      "bufferView": 4,
      "byteOffset": 780,
      "componentType": 5126,
      "count": 1,
      "max": [
        0
      ],
      "min": [
        0
      ],
      "type": "SCALAR"
    },
    {
      "bufferView": 5,
      "byteOffset": 1560,
      "componentType": 5126,
      "count": 1,
      "max": [
        0,
        0,
        0
      ],
      "min": [
        0,
        0,
        0
      ],
      "type": "VEC3"
    },
    {
      "bufferView": 4,
      "byteOffset": 784,
      "componentType": 5126,
      "count": 1,
      "max": [
        0
      ],
      "min": [
        0
      ],
      "type": "SCALAR"
    },
    {
      "bufferView": 5,
      "byteOffset": 1572,
      "componentType": 5126,
      "count": 1,
      "max": [
        1,
        1,
        1
      ],
      "min": [
        1,
        1,
        1
      ],
      "type": "VEC3"
    },
    {
      "bufferView": 4,
      "byteOffset": 788,
      "componentType": 5126,
      "count": 1,
      "max": [
        0
      ],
      "min": [
        0
      ],
      "type": "SCALAR"
    },
    {
      "bufferView": 6,
      "byteOffset": 1040,
      "componentType": 5126,
      "count": 1,
      "max": [
        0,
        0,
        0,
        1
      ],
      "min": [
        0,
        0,
        0,
        1
      ],
      "type": "VEC4"
    }
  ],
  "animations": [
    {
      "channels": [
        {
          "sampler": 0,
          "target": {
            "node": 5,
            "path": "translation"
          }
        },
        {
          "sampler": 1,
          "target": {
            "node": 5,
            "path": "scale"
          }
        },
        {
          "sampler": 2,
          "target": {
            "node": 5,
            "path": "rotation"
          }
        },
        {
          "sampler": 3,
          "target": {
            "node": 7,
            "path": "translation"
          }
        },
        {
          "sampler": 4,
          "target": {
            "node": 7,
            "path": "scale"
          }
        },
        {
          "sampler": 5,
          "target": {
            "node": 7,
            "path": "rotation"
          }
        },
        {
          "sampler": 6,
          "target": {
            "node": 4,
            "path": "translation"
          }
        },
        {
          "sampler": 7,
          "target": {
            "node": 4,
            "path": "scale"
          }
        },
        {
          "sampler": 8,
          "target": {
            "node": 4,
            "path": "rotation"
          }
        }
      ],
      "name": "Scene",
      "samplers": [
        {
          "input": 10,
          "interpolation": "LINEAR",
          "output": 11
        },
        {
          "input": 12,
          "interpolation": "LINEAR",
          "output": 13
        },
        {
          "input": 14,
          "interpolation": "LINEAR",
          "output": 15
        },
        {
          "input": 16,
          "interpolation": "LINEAR",
          "output": 17
        },
        {
          "input": 18,
          "interpolation": "LINEAR",
          "output": 19
        },
        {
          "input": 20,
          "interpolation": "LINEAR",
          "output": 21
        },
        {
          "input": 22,
          "interpolation": "LINEAR",
          "output": 23
        },
        {
          "input": 24,
          "interpolation": "LINEAR",
          "output": 25
        },
        {
          "input": 26,
          "interpolation": "LINEAR",
          "output": 27
        }
      ]
    }
  ],
  "asset": {
    "extras": {
      "author": "mauricesvay (https://sketchfab.com/mauricesvay)",
      "license": "CC-BY-ND-4.0 (http://creativecommons.org/licenses/by-nd/4.0/)",
      "source": "https://sketchfab.com/models/b8731a2fda6849c9a164d1966dc16ff8",
      "title": "Bouncing Basketball"
    },
    "generator": "Sketchfab-3.19.4",
    "version": "2.0"
  },
  "bufferViews": [
    {
      "buffer": 0,
      "byteLength": 379416,
      "byteOffset": 0,
      "name": "floatBufferViews",
      "target": 34963
    },
    {
      "buffer": 0,
      "byteLength": 132192,
      "byteOffset": 379416,
      "byteStride": 8,
      "name": "floatBufferViews",
      "target": 34962
    },
    {
      "buffer": 0,
      "byteLength": 396576,
      "byteOffset": 511608,
      "byteStride": 12,
      "name": "floatBufferViews",
      "target": 34962
    },
    {
      "buffer": 0,
      "byteLength": 264384,
      "byteOffset": 908184,
      "byteStride": 16,
      "name": "floatBufferViews",
      "target": 34962
    },
    {
      "buffer": 0,
      "byteLength": 792,
      "byteOffset": 1172568,
      "name": "floatBufferViews"
    },
    {
      "buffer": 0,
      "byteLength": 1584,
      "byteOffset": 1173360,
      "byteStride": 12,
      "name": "floatBufferViews"
    },
    {
      "buffer": 0,
      "byteLength": 1056,
      "byteOffset": 1174944,
      "byteStride": 16,
      "name": "floatBufferViews"
    }
  ],
  "buffers": [
    {
      "byteLength": 1176000,
      "uri": "scene.bin"
    }
  ],
  "images": [
    {
      "uri": "textures/floor_baseColor.png"
    },
    {
      "uri": "textures/basketball_baseColor.jpg"
    }
  ],
  "materials": [
    {
      "doubleSided": true,
      "emissiveFactor": [
        0,
        0,
        0
      ],
      "name": "basketball",
      "pbrMetallicRoughness": {
        "baseColorFactor": [
          1,
          1,
          1,
          1
        ],
        "baseColorTexture": {
          "index": 1,
          "texCoord": 0
        },
        "metallicFactor": 0,
        "roughnessFactor": 0.40000000000000002
      }
    },
    {
      "alphaMode": "BLEND",
      "doubleSided": false,
      "emissiveFactor": [
        0,
        0,
        0
      ],
      "name": "floor",
      "pbrMetallicRoughness": {
        "baseColorFactor": [
          0,
          0,
          0,
          1
        ],
        "baseColorTexture": {
          "index": 0,
          "texCoord": 0
        },
        "metallicFactor": 0,
        "roughnessFactor": 1
      }
    }
  ],
  "meshes": [
    {
      "name": "PolySphere.001_basketball_0",
      "primitives": [
        {
          "attributes": {
            "NORMAL": 1,
            "POSITION": 0,
            "TANGENT": 2,
            "TEXCOORD_0": 3
          },
          "indices": 4,
          "material": 0,
          "mode": 4
        }
      ]
    },
    {
      "name": "Plane_floor_0",
      "primitives": [
        {
          "attributes": {
            "NORMAL": 6,
            "POSITION": 5,
            "TANGENT": 7,
            "TEXCOORD_0": 8
          },
          "indices": 9,
          "material": 1,
          "mode": 4
        }
      ]
    }
  ],
  "nodes": [
    {
      "children": [
        1
      ],
      "name": "RootNode (gltf orientation matrix)",
      "rotation": [
        -0.70710678118654746,
        -0,
        -0,
        0.70710678118654757
      ]
    },
    {
      "children": [
        2
      ],
      "name": "RootNode (model correction matrix)"
    },
    {
      "children": [
        3
      ],
      "matrix": [
        1,
        0,
        0,
        0,
        0,
        0,
        1,
        0,
        0,
        -1,
        0,
        0,
        0,
        0,
        0,
        1
      ],
      "name": "5d8334b8cc9e4276a192db3df0934e7a.fbx"
    },
    {
      "children": [
        4
      ],
      "name": ""
    },
    {
      "children": [
        5,
        7
      ],
      "name": "RootNode"
    },
    {
      "children": [
        6
      ],
      "name": "PolySphere.001",
      "rotation": [
        0.32131931185722351,
        0.3847808837890625,
        0.85304808616638184,
        -0.14493623375892639
      ],
      "scale": [
        1.0000001192092896,
        1,
        1
      ],
      "translation": [
        0,
        3.9461503028869629,
        0
      ]
    },
    {
      "mesh": 0,
      "name": "PolySphere.001_basketball_0"
    },
    {
      "children": [
        8
      ],
      "name": "Plane",
      "rotation": [
        -0.7071068286895752,
        0,
        0,
        0.70710670948028564
      ],
      "scale": [
        1.0071051120758057,
        1.0071051120758057,
        1.0071051120758057
      ]
    },
    {
      "mesh": 1,
      "name": "Plane_floor_0"
    }
  ],
  "samplers": [
    {
      "magFilter": 9729,
      "minFilter": 9987,
      "wrapS": 10497,
      "wrapT": 10497
    }
  ],
  "scene": 0,
  "scenes": [
    {
      "name": "OSG_Scene",
      "nodes": [
        0
      ]
    }
  ],
  "textures": [
    {
      "sampler": 0,
      "source": 0
    },
    {
      "sampler": 0,
      "source": 1
    }
  ]
}

